<svg width="251" height="87" viewBox="0 0 251 87" fill="none" xmlns="http://www.w3.org/2000/svg">
<ellipse cx="128" cy="42" rx="41" ry="42" fill="url(#paint0_linear)"/>
<path d="M57.5264 76.582H59.3624L63.8444 66.772L68.3264 76.582H70.1624V64H68.3804V72.946L64.2944 64H63.3944L59.2904 72.946V64H57.5264V76.582ZM78.767 63.73C77.519 63.73 76.391 64 75.383 64.54C74.375 65.092 73.583 65.866 73.007 66.862C72.431 67.858 72.143 68.998 72.143 70.282C72.143 71.566 72.431 72.706 73.007 73.702C73.583 74.698 74.375 75.472 75.383 76.024C76.391 76.576 77.519 76.852 78.767 76.852C80.015 76.852 81.143 76.576 82.151 76.024C83.159 75.472 83.951 74.698 84.527 73.702C85.103 72.706 85.391 71.566 85.391 70.282C85.391 68.998 85.103 67.858 84.527 66.862C83.951 65.866 83.159 65.092 82.151 64.54C81.143 64 80.015 63.73 78.767 63.73ZM78.767 65.386C79.655 65.386 80.459 65.584 81.179 65.98C81.911 66.388 82.487 66.958 82.907 67.69C83.327 68.434 83.537 69.298 83.537 70.282C83.537 71.254 83.327 72.106 82.907 72.838C82.499 73.582 81.935 74.152 81.215 74.548C80.495 74.956 79.691 75.16 78.803 75.16C77.903 75.16 77.087 74.962 76.355 74.566C75.635 74.17 75.059 73.6 74.627 72.856C74.207 72.112 73.997 71.254 73.997 70.282C73.997 69.298 74.207 68.434 74.627 67.69C75.047 66.958 75.617 66.388 76.337 65.98C77.069 65.584 77.879 65.386 78.767 65.386ZM87.3741 76.582H92.4321C93.7761 76.582 94.8081 76.258 95.5281 75.61C96.2481 74.962 96.6081 74.014 96.6081 72.766C96.6081 71.842 96.3621 71.056 95.8701 70.408C95.3781 69.772 94.6821 69.34 93.7821 69.112L96.5541 64H94.6461L91.9641 68.968H89.2101V64H87.3741V76.582ZM92.1261 70.516C92.9301 70.516 93.5661 70.702 94.0341 71.074C94.5141 71.458 94.7541 72.022 94.7541 72.766C94.7541 73.582 94.5201 74.164 94.0521 74.512C93.5961 74.86 92.9541 75.034 92.1261 75.034H89.2101V70.516H92.1261ZM104.625 63.73C103.329 63.73 102.177 64 101.169 64.54C100.161 65.08 99.3753 65.842 98.8113 66.826C98.2473 67.822 97.9653 68.974 97.9653 70.282C97.9653 71.59 98.2473 72.742 98.8113 73.738C99.3753 74.734 100.161 75.502 101.169 76.042C102.177 76.582 103.329 76.852 104.625 76.852C106.365 76.852 107.811 76.42 108.963 75.556V73.792C107.919 74.704 106.527 75.16 104.787 75.16C103.839 75.16 102.987 74.962 102.231 74.566C101.475 74.17 100.881 73.6 100.449 72.856C100.029 72.124 99.8193 71.266 99.8193 70.282C99.8193 69.298 100.029 68.434 100.449 67.69C100.869 66.946 101.451 66.376 102.195 65.98C102.939 65.584 103.779 65.386 104.715 65.386C105.807 65.386 106.701 65.608 107.397 66.052V69.346H105.003V70.84H109.233V65.08C108.669 64.612 108.003 64.27 107.235 64.054C106.479 63.838 105.609 63.73 104.625 63.73ZM117.474 63.73C116.226 63.73 115.098 64 114.09 64.54C113.082 65.092 112.29 65.866 111.714 66.862C111.138 67.858 110.85 68.998 110.85 70.282C110.85 71.566 111.138 72.706 111.714 73.702C112.29 74.698 113.082 75.472 114.09 76.024C115.098 76.576 116.226 76.852 117.474 76.852C118.722 76.852 119.85 76.576 120.858 76.024C121.866 75.472 122.658 74.698 123.234 73.702C123.81 72.706 124.098 71.566 124.098 70.282C124.098 68.998 123.81 67.858 123.234 66.862C122.658 65.866 121.866 65.092 120.858 64.54C119.85 64 118.722 63.73 117.474 63.73ZM117.474 65.386C118.362 65.386 119.166 65.584 119.886 65.98C120.618 66.388 121.194 66.958 121.614 67.69C122.034 68.434 122.244 69.298 122.244 70.282C122.244 71.254 122.034 72.106 121.614 72.838C121.206 73.582 120.642 74.152 119.922 74.548C119.202 74.956 118.398 75.16 117.51 75.16C116.61 75.16 115.794 74.962 115.062 74.566C114.342 74.17 113.766 73.6 113.334 72.856C112.914 72.112 112.704 71.254 112.704 70.282C112.704 69.298 112.914 68.434 113.334 67.69C113.754 66.958 114.324 66.388 115.044 65.98C115.776 65.584 116.586 65.386 117.474 65.386ZM126.081 76.582H127.827L134.235 67.096V76.582H136.089V64H134.325L127.917 73.486V64H126.081V76.582ZM143.083 76.582H144.847L149.869 64H147.997L146.737 67.132H141.175L139.951 64H138.061L143.083 76.582ZM146.233 68.662L143.965 74.548L141.697 68.662H146.233ZM151.851 76.582H156.693C158.049 76.582 159.117 76.24 159.897 75.556C160.689 74.884 161.085 73.924 161.085 72.676C161.085 71.404 160.695 70.438 159.915 69.778C159.135 69.13 158.061 68.806 156.693 68.806H153.687V64H151.851V76.582ZM156.495 70.336C157.335 70.336 158.001 70.51 158.493 70.858C158.985 71.206 159.231 71.812 159.231 72.676C159.231 73.54 158.985 74.146 158.493 74.494C158.001 74.854 157.335 75.034 156.495 75.034H153.687V70.336H156.495ZM162.433 76.582H167.275C168.631 76.582 169.699 76.24 170.479 75.556C171.271 74.884 171.667 73.924 171.667 72.676C171.667 71.404 171.277 70.438 170.497 69.778C169.717 69.13 168.643 68.806 167.275 68.806H164.269V64H162.433V76.582ZM167.077 70.336C167.917 70.336 168.583 70.51 169.075 70.858C169.567 71.206 169.813 71.812 169.813 72.676C169.813 73.54 169.567 74.146 169.075 74.494C168.583 74.854 167.917 75.034 167.077 75.034H164.269V70.336H167.077ZM173.278 76.582H181.576V75.034H175.114V71.056H179.938V69.526H175.114V65.53H181.576V64H173.278V76.582ZM183.474 76.582H185.22L191.628 67.096V76.582H193.482V64H191.718L185.31 73.486V64H183.474V76.582Z" fill="#CA1D06" fill-opacity="0.08"/>
<path d="M57.5264 51.418H59.3624L63.8444 61.228L68.3264 51.418H70.1624V64H68.3804V55.054L64.2944 64H63.3944L59.2904 55.054V64H57.5264V51.418ZM78.767 64.27C77.519 64.27 76.391 64 75.383 63.46C74.375 62.908 73.583 62.134 73.007 61.138C72.431 60.142 72.143 59.002 72.143 57.718C72.143 56.434 72.431 55.294 73.007 54.298C73.583 53.302 74.375 52.528 75.383 51.976C76.391 51.424 77.519 51.148 78.767 51.148C80.015 51.148 81.143 51.424 82.151 51.976C83.159 52.528 83.951 53.302 84.527 54.298C85.103 55.294 85.391 56.434 85.391 57.718C85.391 59.002 85.103 60.142 84.527 61.138C83.951 62.134 83.159 62.908 82.151 63.46C81.143 64 80.015 64.27 78.767 64.27ZM78.767 62.614C79.655 62.614 80.459 62.416 81.179 62.02C81.911 61.612 82.487 61.042 82.907 60.31C83.327 59.566 83.537 58.702 83.537 57.718C83.537 56.746 83.327 55.894 82.907 55.162C82.499 54.418 81.935 53.848 81.215 53.452C80.495 53.044 79.691 52.84 78.803 52.84C77.903 52.84 77.087 53.038 76.355 53.434C75.635 53.83 75.059 54.4 74.627 55.144C74.207 55.888 73.997 56.746 73.997 57.718C73.997 58.702 74.207 59.566 74.627 60.31C75.047 61.042 75.617 61.612 76.337 62.02C77.069 62.416 77.879 62.614 78.767 62.614ZM87.3741 51.418H92.4321C93.7761 51.418 94.8081 51.742 95.5281 52.39C96.2481 53.038 96.6081 53.986 96.6081 55.234C96.6081 56.158 96.3621 56.944 95.8701 57.592C95.3781 58.228 94.6821 58.66 93.7821 58.888L96.5541 64H94.6461L91.9641 59.032H89.2101V64H87.3741V51.418ZM92.1261 57.484C92.9301 57.484 93.5661 57.298 94.0341 56.926C94.5141 56.542 94.7541 55.978 94.7541 55.234C94.7541 54.418 94.5201 53.836 94.0521 53.488C93.5961 53.14 92.9541 52.966 92.1261 52.966H89.2101V57.484H92.1261ZM104.625 64.27C103.329 64.27 102.177 64 101.169 63.46C100.161 62.92 99.3753 62.158 98.8113 61.174C98.2473 60.178 97.9653 59.026 97.9653 57.718C97.9653 56.41 98.2473 55.258 98.8113 54.262C99.3753 53.266 100.161 52.498 101.169 51.958C102.177 51.418 103.329 51.148 104.625 51.148C106.365 51.148 107.811 51.58 108.963 52.444V54.208C107.919 53.296 106.527 52.84 104.787 52.84C103.839 52.84 102.987 53.038 102.231 53.434C101.475 53.83 100.881 54.4 100.449 55.144C100.029 55.876 99.8193 56.734 99.8193 57.718C99.8193 58.702 100.029 59.566 100.449 60.31C100.869 61.054 101.451 61.624 102.195 62.02C102.939 62.416 103.779 62.614 104.715 62.614C105.807 62.614 106.701 62.392 107.397 61.948V58.654H105.003V57.16H109.233V62.92C108.669 63.388 108.003 63.73 107.235 63.946C106.479 64.162 105.609 64.27 104.625 64.27ZM117.474 64.27C116.226 64.27 115.098 64 114.09 63.46C113.082 62.908 112.29 62.134 111.714 61.138C111.138 60.142 110.85 59.002 110.85 57.718C110.85 56.434 111.138 55.294 111.714 54.298C112.29 53.302 113.082 52.528 114.09 51.976C115.098 51.424 116.226 51.148 117.474 51.148C118.722 51.148 119.85 51.424 120.858 51.976C121.866 52.528 122.658 53.302 123.234 54.298C123.81 55.294 124.098 56.434 124.098 57.718C124.098 59.002 123.81 60.142 123.234 61.138C122.658 62.134 121.866 62.908 120.858 63.46C119.85 64 118.722 64.27 117.474 64.27ZM117.474 62.614C118.362 62.614 119.166 62.416 119.886 62.02C120.618 61.612 121.194 61.042 121.614 60.31C122.034 59.566 122.244 58.702 122.244 57.718C122.244 56.746 122.034 55.894 121.614 55.162C121.206 54.418 120.642 53.848 119.922 53.452C119.202 53.044 118.398 52.84 117.51 52.84C116.61 52.84 115.794 53.038 115.062 53.434C114.342 53.83 113.766 54.4 113.334 55.144C112.914 55.888 112.704 56.746 112.704 57.718C112.704 58.702 112.914 59.566 113.334 60.31C113.754 61.042 114.324 61.612 115.044 62.02C115.776 62.416 116.586 62.614 117.474 62.614ZM126.081 51.418H127.827L134.235 60.904V51.418H136.089V64H134.325L127.917 54.514V64H126.081V51.418ZM143.083 51.418H144.847L149.869 64H147.997L146.737 60.868H141.175L139.951 64H138.061L143.083 51.418ZM146.233 59.338L143.965 53.452L141.697 59.338H146.233ZM151.851 51.418H156.693C158.049 51.418 159.117 51.76 159.897 52.444C160.689 53.116 161.085 54.076 161.085 55.324C161.085 56.596 160.695 57.562 159.915 58.222C159.135 58.87 158.061 59.194 156.693 59.194H153.687V64H151.851V51.418ZM156.495 57.664C157.335 57.664 158.001 57.49 158.493 57.142C158.985 56.794 159.231 56.188 159.231 55.324C159.231 54.46 158.985 53.854 158.493 53.506C158.001 53.146 157.335 52.966 156.495 52.966H153.687V57.664H156.495ZM162.433 51.418H167.275C168.631 51.418 169.699 51.76 170.479 52.444C171.271 53.116 171.667 54.076 171.667 55.324C171.667 56.596 171.277 57.562 170.497 58.222C169.717 58.87 168.643 59.194 167.275 59.194H164.269V64H162.433V51.418ZM167.077 57.664C167.917 57.664 168.583 57.49 169.075 57.142C169.567 56.794 169.813 56.188 169.813 55.324C169.813 54.46 169.567 53.854 169.075 53.506C168.583 53.146 167.917 52.966 167.077 52.966H164.269V57.664H167.077ZM173.278 51.418H181.576V52.966H175.114V56.944H179.938V58.474H175.114V62.47H181.576V64H173.278V51.418ZM183.474 51.418H185.22L191.628 60.904V51.418H193.482V64H191.718L185.31 54.514V64H183.474V51.418Z" fill="url(#paint1_radial)"/>
<defs>
<linearGradient id="paint0_linear" x1="128" y1="0" x2="128" y2="84" gradientUnits="userSpaceOnUse">
<stop stop-color="#FF472E"/>
<stop offset="0.473958" stop-color="#E4862F" stop-opacity="0.526042"/>
<stop offset="1" stop-color="#C4C4C4" stop-opacity="0"/>
</linearGradient>
<radialGradient id="paint1_radial" cx="0" cy="0" r="1" gradientUnits="userSpaceOnUse" gradientTransform="translate(126.008 54.2381) rotate(90) scale(11.2619 65.7381)">
<stop stop-color="#D87195"/>
<stop offset="1" stop-color="#F48E5D"/>
</radialGradient>
</defs>
</svg>
